<?xml version="1.0" encoding="UTF-8" standalone="no"?>
<!DOCTYPE svg PUBLIC "-//W3C//DTD SVG 1.1//EN"
 "http://www.w3.org/Graphics/SVG/1.1/DTD/svg11.dtd">
<!-- Generated by graphviz version 2.38.0 (20140413.2041)
 -->
<!-- Title: Perl Pages: 1 -->
<svg width="514pt" height="530pt"
 viewBox="0.00 0.00 513.66 529.60" xmlns="http://www.w3.org/2000/svg" xmlns:xlink="http://www.w3.org/1999/xlink">
<g id="graph0" class="graph" transform="scale(1 1) rotate(0) translate(4 525.6)">
<title>Perl</title>
<polygon fill="white" stroke="none" points="-4,4 -4,-525.6 509.656,-525.6 509.656,4 -4,4"/>
<!-- CUADJTQ -->
<g id="node1" class="node"><title>CUADJTQ</title>
<polygon fill="none" stroke="black" points="498.139,-341.402 418.617,-341.402 418.617,-300.198 498.139,-300.198 498.139,-341.402"/>
<text text-anchor="middle" x="458.378" y="-325" font-family="Times,serif" font-size="14.00">CUADJTQ</text>
<text text-anchor="middle" x="458.378" y="-308.2" font-family="Times,serif" font-size="14.00">561</text>
</g>
<!-- CUFLXN -->
<g id="node2" class="node"><title>CUFLXN</title>
<polygon fill="none" stroke="black" points="361.091,-221.402 289.107,-221.402 289.107,-180.198 361.091,-180.198 361.091,-221.402"/>
<text text-anchor="middle" x="325.099" y="-205" font-family="Times,serif" font-size="14.00">CUFLXN</text>
<text text-anchor="middle" x="325.099" y="-188.2" font-family="Times,serif" font-size="14.00">503</text>
</g>
<!-- CUBIDIAG -->
<g id="node3" class="node"><title>CUBIDIAG</title>
<polygon fill="none" stroke="black" points="500.8,-101.402 415.956,-101.402 415.956,-60.1981 500.8,-60.1981 500.8,-101.402"/>
<text text-anchor="middle" x="458.378" y="-85" font-family="Times,serif" font-size="14.00">CUBIDIAG</text>
<text text-anchor="middle" x="458.378" y="-68.2" font-family="Times,serif" font-size="14.00">104</text>
</g>
<!-- CUCTRACER -->
<g id="node4" class="node"><title>CUCTRACER</title>
<polygon fill="none" stroke="black" points="375.1,-41.4019 275.097,-41.4019 275.097,-0.198095 375.1,-0.198095 375.1,-41.4019"/>
<text text-anchor="middle" x="325.099" y="-25" font-family="Times,serif" font-size="14.00">CUCTRACER</text>
<text text-anchor="middle" x="325.099" y="-8.2" font-family="Times,serif" font-size="14.00">393</text>
</g>
<!-- CUCTRACER&#45;&#45;CUBIDIAG -->
<g id="edge1" class="edge"><title>CUCTRACER&#45;&#45;CUBIDIAG</title>
<path fill="none" stroke="black" d="M371.278,-41.4486C385.815,-48.0926 401.84,-55.4166 416.083,-61.9263"/>
</g>
<!-- CUDDRAFN -->
<g id="node5" class="node"><title>CUDDRAFN</title>
<polygon fill="none" stroke="black" points="371.588,-281.402 278.61,-281.402 278.61,-240.198 371.588,-240.198 371.588,-281.402"/>
<text text-anchor="middle" x="325.099" y="-265" font-family="Times,serif" font-size="14.00">CUDDRAFN</text>
<text text-anchor="middle" x="325.099" y="-248.2" font-family="Times,serif" font-size="14.00">290</text>
</g>
<!-- CUDDRAFN&#45;&#45;CUADJTQ -->
<g id="edge2" class="edge"><title>CUDDRAFN&#45;&#45;CUADJTQ</title>
<path fill="none" stroke="black" d="M371.278,-281.449C386.556,-288.432 403.479,-296.166 418.248,-302.916"/>
</g>
<!-- CUENTR -->
<g id="node6" class="node"><title>CUENTR</title>
<polygon fill="none" stroke="black" points="494.37,-401.402 422.386,-401.402 422.386,-360.198 494.37,-360.198 494.37,-401.402"/>
<text text-anchor="middle" x="458.378" y="-385" font-family="Times,serif" font-size="14.00">CUENTR</text>
<text text-anchor="middle" x="458.378" y="-368.2" font-family="Times,serif" font-size="14.00">158</text>
</g>
<!-- CUCALLN_MF -->
<g id="node7" class="node"><title>CUCALLN_MF</title>
<polygon fill="none" stroke="black" points="109.489,-281.402 -0.163186,-281.402 -0.163186,-240.198 109.489,-240.198 109.489,-281.402"/>
<text text-anchor="middle" x="54.6627" y="-265" font-family="Times,serif" font-size="14.00">CUCALLN_MF</text>
<text text-anchor="middle" x="54.6627" y="-248.2" font-family="Times,serif" font-size="14.00">468</text>
</g>
<!-- SATUR -->
<g id="node8" class="node"><title>SATUR</title>
<polygon fill="none" stroke="black" points="223.097,-341.402 161.327,-341.402 161.327,-300.198 223.097,-300.198 223.097,-341.402"/>
<text text-anchor="middle" x="192.212" y="-325" font-family="Times,serif" font-size="14.00">SATUR</text>
<text text-anchor="middle" x="192.212" y="-308.2" font-family="Times,serif" font-size="14.00">139</text>
</g>
<!-- CUCALLN_MF&#45;&#45;SATUR -->
<g id="edge3" class="edge"><title>CUCALLN_MF&#45;&#45;SATUR</title>
<path fill="none" stroke="black" d="M102.311,-281.449C121.763,-290.059 143.794,-299.811 161.058,-307.453"/>
</g>
<!-- CUMASTRN -->
<g id="node9" class="node"><title>CUMASTRN</title>
<polygon fill="none" stroke="black" points="238.985,-281.402 145.439,-281.402 145.439,-240.198 238.985,-240.198 238.985,-281.402"/>
<text text-anchor="middle" x="192.212" y="-265" font-family="Times,serif" font-size="14.00">CUMASTRN</text>
<text text-anchor="middle" x="192.212" y="-248.2" font-family="Times,serif" font-size="14.00">1529</text>
</g>
<!-- CUCALLN_MF&#45;&#45;CUMASTRN -->
<g id="edge4" class="edge"><title>CUCALLN_MF&#45;&#45;CUMASTRN</title>
<path fill="none" stroke="black" d="M109.625,-260.8C121.437,-260.8 133.835,-260.8 145.297,-260.8"/>
</g>
<!-- CUCCDIA -->
<g id="node10" class="node"><title>CUCCDIA</title>
<polygon fill="none" stroke="black" points="231.702,-221.402 152.722,-221.402 152.722,-180.198 231.702,-180.198 231.702,-221.402"/>
<text text-anchor="middle" x="192.212" y="-205" font-family="Times,serif" font-size="14.00">CUCCDIA</text>
<text text-anchor="middle" x="192.212" y="-188.2" font-family="Times,serif" font-size="14.00">138</text>
</g>
<!-- CUCALLN_MF&#45;&#45;CUCCDIA -->
<g id="edge5" class="edge"><title>CUCALLN_MF&#45;&#45;CUCCDIA</title>
<path fill="none" stroke="black" d="M102.311,-240.151C118.699,-232.897 136.919,-224.832 152.576,-217.902"/>
</g>
<!-- CUMASTRN&#45;&#45;CUFLXN -->
<g id="edge12" class="edge"><title>CUMASTRN&#45;&#45;CUFLXN</title>
<path fill="none" stroke="black" d="M238.256,-240.151C254.82,-232.558 273.321,-224.077 288.894,-216.938"/>
</g>
<!-- CUMASTRN&#45;&#45;CUCTRACER -->
<g id="edge15" class="edge"><title>CUMASTRN&#45;&#45;CUCTRACER</title>
<path fill="none" stroke="black" d="M231.104,-239.9C234.119,-237.144 236.859,-234.111 239.098,-230.8 284.798,-163.217 228.401,-117.698 275.098,-50.8 277.496,-47.3647 280.426,-44.2492 283.649,-41.4409"/>
</g>
<!-- CUMASTRN&#45;&#45;CUDDRAFN -->
<g id="edge11" class="edge"><title>CUMASTRN&#45;&#45;CUDDRAFN</title>
<path fill="none" stroke="black" d="M238.99,-260.8C251.817,-260.8 265.755,-260.8 278.568,-260.8"/>
</g>
<!-- CUDUDV -->
<g id="node11" class="node"><title>CUDUDV</title>
<polygon fill="none" stroke="black" points="362.969,-101.402 287.229,-101.402 287.229,-60.1981 362.969,-60.1981 362.969,-101.402"/>
<text text-anchor="middle" x="325.099" y="-85" font-family="Times,serif" font-size="14.00">CUDUDV</text>
<text text-anchor="middle" x="325.099" y="-68.2" font-family="Times,serif" font-size="14.00">356</text>
</g>
<!-- CUMASTRN&#45;&#45;CUDUDV -->
<g id="edge14" class="edge"><title>CUMASTRN&#45;&#45;CUDUDV</title>
<path fill="none" stroke="black" d="M230.341,-240.057C233.591,-237.243 236.592,-234.155 239.098,-230.8 272.423,-186.192 241.116,-154.909 275.098,-110.8 278.386,-106.533 282.466,-102.731 286.859,-99.3886"/>
</g>
<!-- CUININ -->
<g id="node12" class="node"><title>CUININ</title>
<polygon fill="none" stroke="black" points="357.577,-521.402 292.621,-521.402 292.621,-480.198 357.577,-480.198 357.577,-521.402"/>
<text text-anchor="middle" x="325.099" y="-505" font-family="Times,serif" font-size="14.00">CUININ</text>
<text text-anchor="middle" x="325.099" y="-488.2" font-family="Times,serif" font-size="14.00">216</text>
</g>
<!-- CUMASTRN&#45;&#45;CUININ -->
<g id="edge7" class="edge"><title>CUMASTRN&#45;&#45;CUININ</title>
<path fill="none" stroke="black" d="M231.104,-281.7C234.119,-284.456 236.859,-287.489 239.098,-290.8 284.798,-358.383 228.401,-403.902 275.098,-470.8 279.552,-477.18 285.84,-482.457 292.432,-486.711"/>
</g>
<!-- CUBASEN -->
<g id="node13" class="node"><title>CUBASEN</title>
<polygon fill="none" stroke="black" points="365.928,-461.402 284.27,-461.402 284.27,-420.198 365.928,-420.198 365.928,-461.402"/>
<text text-anchor="middle" x="325.099" y="-445" font-family="Times,serif" font-size="14.00">CUBASEN</text>
<text text-anchor="middle" x="325.099" y="-428.2" font-family="Times,serif" font-size="14.00">703</text>
</g>
<!-- CUMASTRN&#45;&#45;CUBASEN -->
<g id="edge8" class="edge"><title>CUMASTRN&#45;&#45;CUBASEN</title>
<path fill="none" stroke="black" d="M230.341,-281.543C233.591,-284.357 236.592,-287.445 239.098,-290.8 272.423,-335.408 241.116,-366.691 275.098,-410.8 277.655,-414.119 280.692,-417.156 283.982,-419.915"/>
</g>
<!-- CUASCN -->
<g id="node14" class="node"><title>CUASCN</title>
<polygon fill="none" stroke="black" points="361.375,-401.402 288.823,-401.402 288.823,-360.198 361.375,-360.198 361.375,-401.402"/>
<text text-anchor="middle" x="325.099" y="-385" font-family="Times,serif" font-size="14.00">CUASCN</text>
<text text-anchor="middle" x="325.099" y="-368.2" font-family="Times,serif" font-size="14.00">844</text>
</g>
<!-- CUMASTRN&#45;&#45;CUASCN -->
<g id="edge9" class="edge"><title>CUMASTRN&#45;&#45;CUASCN</title>
<path fill="none" stroke="black" d="M228.59,-281.511C232.338,-284.395 235.931,-287.508 239.098,-290.8 260.659,-313.21 253.207,-328.712 275.098,-350.8 279.171,-354.909 283.913,-358.696 288.813,-362.096"/>
</g>
<!-- CUDLFSN -->
<g id="node15" class="node"><title>CUDLFSN</title>
<polygon fill="none" stroke="black" points="364.873,-341.402 285.324,-341.402 285.324,-300.198 364.873,-300.198 364.873,-341.402"/>
<text text-anchor="middle" x="325.099" y="-325" font-family="Times,serif" font-size="14.00">CUDLFSN</text>
<text text-anchor="middle" x="325.099" y="-308.2" font-family="Times,serif" font-size="14.00">286</text>
</g>
<!-- CUMASTRN&#45;&#45;CUDLFSN -->
<g id="edge10" class="edge"><title>CUMASTRN&#45;&#45;CUDLFSN</title>
<path fill="none" stroke="black" d="M238.256,-281.449C253.489,-288.432 270.36,-296.166 285.086,-302.916"/>
</g>
<!-- CUDTDQN -->
<g id="node16" class="node"><title>CUDTDQN</title>
<polygon fill="none" stroke="black" points="367.522,-161.402 282.676,-161.402 282.676,-120.198 367.522,-120.198 367.522,-161.402"/>
<text text-anchor="middle" x="325.099" y="-145" font-family="Times,serif" font-size="14.00">CUDTDQN</text>
<text text-anchor="middle" x="325.099" y="-128.2" font-family="Times,serif" font-size="14.00">419</text>
</g>
<!-- CUMASTRN&#45;&#45;CUDTDQN -->
<g id="edge13" class="edge"><title>CUMASTRN&#45;&#45;CUDTDQN</title>
<path fill="none" stroke="black" d="M228.59,-240.089C232.338,-237.205 235.931,-234.092 239.098,-230.8 260.659,-208.39 253.207,-192.888 275.098,-170.8 278.328,-167.541 281.979,-164.485 285.796,-161.663"/>
</g>
<!-- CUDUDV&#45;&#45;CUBIDIAG -->
<g id="edge6" class="edge"><title>CUDUDV&#45;&#45;CUBIDIAG</title>
<path fill="none" stroke="black" d="M363.017,-80.8C379.55,-80.8 399.11,-80.8 416.123,-80.8"/>
</g>
<!-- CUININ&#45;&#45;CUADJTQ -->
<g id="edge23" class="edge"><title>CUININ&#45;&#45;CUADJTQ</title>
<path fill="none" stroke="black" d="M357.592,-486.234C364.111,-482.023 370.412,-476.884 375.1,-470.8 409.082,-426.691 377.688,-395.344 411.1,-350.8 413.628,-347.43 416.654,-344.332 419.932,-341.512"/>
</g>
<!-- CUADJTQS -->
<g id="node18" class="node"><title>CUADJTQS</title>
<polygon fill="none" stroke="black" points="501.922,-521.402 414.834,-521.402 414.834,-480.198 501.922,-480.198 501.922,-521.402"/>
<text text-anchor="middle" x="458.378" y="-505" font-family="Times,serif" font-size="14.00">CUADJTQS</text>
<text text-anchor="middle" x="458.378" y="-488.2" font-family="Times,serif" font-size="14.00">278</text>
</g>
<!-- CUININ&#45;&#45;CUADJTQS -->
<g id="edge22" class="edge"><title>CUININ&#45;&#45;CUADJTQS</title>
<path fill="none" stroke="black" d="M357.878,-500.8C374.876,-500.8 396.046,-500.8 414.483,-500.8"/>
</g>
<!-- CUBASEN&#45;&#45;CUADJTQ -->
<g id="edge20" class="edge"><title>CUBASEN&#45;&#45;CUADJTQ</title>
<path fill="none" stroke="black" d="M364.401,-419.937C368.218,-417.115 371.87,-414.059 375.1,-410.8 396.991,-388.712 389.495,-373.168 411.1,-350.8 414.293,-347.494 417.915,-344.373 421.694,-341.484"/>
</g>
<!-- CUASCN&#45;&#45;CUADJTQ -->
<g id="edge18" class="edge"><title>CUASCN&#45;&#45;CUADJTQ</title>
<path fill="none" stroke="black" d="M361.625,-364.563C379.242,-356.511 400.554,-346.771 418.595,-338.526"/>
</g>
<!-- CUASCN&#45;&#45;CUENTR -->
<g id="edge17" class="edge"><title>CUASCN&#45;&#45;CUENTR</title>
<path fill="none" stroke="black" d="M361.625,-380.8C380.457,-380.8 403.511,-380.8 422.278,-380.8"/>
</g>
<!-- CUBASMCN -->
<g id="node17" class="node"><title>CUBASMCN</title>
<polygon fill="none" stroke="black" points="505.436,-461.402 411.32,-461.402 411.32,-420.198 505.436,-420.198 505.436,-461.402"/>
<text text-anchor="middle" x="458.378" y="-445" font-family="Times,serif" font-size="14.00">CUBASMCN</text>
<text text-anchor="middle" x="458.378" y="-428.2" font-family="Times,serif" font-size="14.00">162</text>
</g>
<!-- CUASCN&#45;&#45;CUBASMCN -->
<g id="edge16" class="edge"><title>CUASCN&#45;&#45;CUBASMCN</title>
<path fill="none" stroke="black" d="M361.625,-397.037C377.116,-404.117 395.463,-412.502 411.932,-420.029"/>
</g>
<!-- CUDLFSN&#45;&#45;CUADJTQ -->
<g id="edge19" class="edge"><title>CUDLFSN&#45;&#45;CUADJTQ</title>
<path fill="none" stroke="black" d="M365.132,-320.8C381.911,-320.8 401.482,-320.8 418.269,-320.8"/>
</g>
<!-- CUDTDQN&#45;&#45;CUBIDIAG -->
<g id="edge21" class="edge"><title>CUDTDQN&#45;&#45;CUBIDIAG</title>
<path fill="none" stroke="black" d="M367.636,-121.816C383.111,-114.743 400.661,-106.722 416.111,-99.6609"/>
</g>
</g>
</svg>
